3.0Hz3min_grf.mot
version=1
nRows=27
nColumns 19
inDegrees=yes
endheader
time	1_ground_force_vx	1_ground_force_vy	1_ground_force_vz	1_ground_force_px	1_ground_force_py	1_ground_force_pz	1_ground_torque_x	1_ground_torque_y	1_ground_torque_z	2_ground_force_vx	2_ground_force_vy	2_ground_force_vz	2_ground_force_px	2_ground_force_py	2_ground_force_pz	2_ground_torque_x	2_ground_torque_y	2_ground_torque_z
            0.005000	            0.049243	           -0.546490	            1.327389	           -0.138451	            0.006297	           -0.418650	           -0.169294	           -0.082591	           -0.129547	           -0.262540	            7.915189	            0.685347	           -0.232311	            0.006130	           -0.833667	           -1.894857	           -0.467303	            1.884209
            0.005500	            0.232580	            0.895278	            1.424829	           -0.138451	            0.006297	           -0.418650	           -0.118029	           -0.082090	           -0.215895	           -0.115159	            6.072707	            1.101069	           -0.232311	            0.006130	           -0.833667	           -1.781863	           -0.551769	            1.827306
            0.006000	            0.277904	           -0.004862	            1.145715	           -0.138451	            0.006297	           -0.418650	           -0.218539	           -0.044802	           -0.288691	           -0.400411	            7.177921	            0.729706	           -0.232311	            0.006130	           -0.833667	           -1.669311	           -0.522533	            1.695408
            0.006500	            0.598919	           -0.004997	            1.190775	           -0.138451	            0.006297	           -0.418650	           -0.088875	           -0.017220	           -0.200019	            0.020032	            7.546736	            1.012410	           -0.232311	            0.006130	           -0.833667	           -1.650566	           -0.531313	            1.525715
            0.007000	            0.277904	           -0.004862	            1.145715	           -0.138451	            0.006297	           -0.418650	           -0.105292	           -0.092045	           -0.044799	            0.022547	            6.811314	            0.681285	           -0.232311	            0.006130	           -0.833667	           -1.462763	           -0.521047	            1.487968
            0.007500	            0.277547	           -0.544873	            0.959973	           -0.138451	            0.006297	           -0.418650	           -0.078588	           -0.073157	           -0.138756	           -0.208441	            5.890229	            0.537315	           -0.232311	            0.006130	           -0.833667	           -1.444302	           -0.426587	            1.525998
            0.008000	           -0.042916	            0.175145	            1.193140	           -0.138451	            0.006297	           -0.418650	           -0.145498	           -0.109719	           -0.284042	           -0.254003	            5.522098	            0.442164	           -0.232311	            0.006130	           -0.833667	           -1.312802	           -0.444480	            1.375073
            0.008500	            0.186853	           -0.366394	            1.373676	           -0.138451	            0.006297	           -0.418650	           -0.171396	           -0.091689	           -0.142521	           -0.060457	            3.864100	            0.811596	           -0.232311	            0.006130	           -0.833667	           -1.237539	           -0.500252	            1.186336
            0.009000	            0.232304	            0.535336	            1.285716	           -0.138451	            0.006297	           -0.418650	           -0.093072	           -0.054521	           -0.178229	            0.169887	            4.969167	            1.003151	           -0.232311	            0.006130	           -0.833667	           -1.162166	           -0.575267	            1.091784
            0.009500	            0.232028	            0.175395	            1.146602	           -0.138451	            0.006297	           -0.418650	           -0.068429	           -0.091092	           -0.272425	           -0.063678	            4.784005	            1.049522	           -0.232311	            0.006130	           -0.833667	           -1.143389	           -0.575131	            1.072925
            0.010000	            0.140684	            0.174787	            1.284397	           -0.138451	            0.006297	           -0.418650	           -0.111667	           -0.063730	           -0.200917	            0.220142	            4.047925	            1.187558	           -0.232311	            0.006130	           -0.833667	           -0.955508	           -0.593022	            0.978527
            0.010500	            0.277805	            0.535935	            1.148034	           -0.138451	            0.006297	           -0.418650	           -0.143564	           -0.054434	           -0.194947	            0.127710	            3.679792	            1.045500	           -0.232311	            0.006130	           -0.833667	           -0.955900	           -0.488908	            0.941198
            0.011000	            0.461423	           -0.185289	            1.190343	           -0.138451	            0.006297	           -0.418650	           -0.069659	           -0.101035	           -0.074697	            0.223362	            3.128020	            0.949632	           -0.232311	            0.006130	           -0.833667	           -0.880868	           -0.469395	            0.846982
            0.011500	            0.185859	            0.716576	            1.057323	           -0.138451	            0.006297	           -0.418650	           -0.139580	           -0.119505	           -0.123959	            0.226103	            2.390757	            1.134717	           -0.232311	            0.006130	           -0.833667	           -0.918473	           -0.460078	            0.847032
            0.012000	            0.324137	            0.354892	            1.330571	           -0.138451	            0.006297	           -0.418650	           -0.075943	           -0.054797	           -0.099165	           -0.055599	            2.573388	            1.276278	           -0.232311	            0.006130	           -0.833667	           -0.749233	           -0.515915	            0.771357
            0.012500	           -0.043111	           -0.004727	            1.100656	           -0.138451	            0.006297	           -0.418650	           -0.009842	           -0.063882	           -0.190185	            0.369270	            1.655006	            1.038172	           -0.232311	            0.006130	           -0.833667	           -0.749003	           -0.582017	            0.752270
            0.013000	            0.186706	           -0.185932	            1.328593	           -0.138451	            0.006297	           -0.418650	           -0.188380	           -0.063883	           -0.161164	            0.372031	            0.917576	            1.270185	           -0.232311	            0.006130	           -0.833667	           -0.767847	           -0.572430	            0.695761
            0.013500	            0.004018	           -0.187147	            1.604184	           -0.138451	            0.006297	           -0.418650	           -0.125183	           -0.063704	           -0.225533	            0.416908	            1.470023	            1.319064	           -0.232311	            0.006130	           -0.833667	           -0.674201	           -0.496402	            0.677141
            0.014000	            0.323502	            0.716406	            1.102837	           -0.138451	            0.006297	           -0.418650	           -0.066291	           -0.128911	           -0.061923	            0.372634	            0.733930	            1.128743	           -0.232311	            0.006130	           -0.833667	           -0.618064	           -0.457716	            0.488750
            0.014500	            0.231591	           -0.544685	            0.914230	           -0.138451	            0.006297	           -0.418650	           -0.020503	           -0.100576	           -0.216165	            0.230796	            1.101384	            1.223973	           -0.232311	            0.006130	           -0.833667	           -0.618303	           -0.391547	            0.488986
            0.015000	            0.415481	            0.355499	            1.192776	           -0.138451	            0.006297	           -0.418650	           -0.164142	           -0.156051	           -0.189461	            0.375169	           -0.001659	            0.844546	           -0.232311	            0.006130	           -0.833667	           -0.561665	           -0.476216	            0.432108
            0.015500	            0.048006	           -0.003727	            0.871149	           -0.138451	            0.006297	           -0.418650	           -0.131185	           -0.036624	           -0.073069	            0.330437	           -0.555278	            1.124164	           -0.232311	            0.006130	           -0.833667	           -0.505461	           -0.447251	            0.319084
            0.016000	            0.186086	            0.716183	            1.149035	           -0.138451	            0.006297	           -0.418650	           -0.031060	           -0.035968	           -0.199063	            0.609522	           -0.001650	            1.079087	           -0.232311	            0.006130	           -0.833667	           -0.430089	           -0.513081	            0.299966
            0.016500	            0.048800	            1.256364	            1.289263	           -0.138451	            0.006297	           -0.418650	           -0.206422	           -0.044981	           -0.279742	            0.377307	           -0.555276	            1.171072	           -0.232311	            0.006130	           -0.833667	           -0.430011	           -0.541238	            0.243314
            0.017000	            0.186802	            0.534738	            1.423397	           -0.138451	            0.006297	           -0.418650	           -0.155343	           -0.100605	           -0.217823	            0.842565	            0.366488	            1.361870	           -0.232311	            0.006130	           -0.833667	           -0.411303	           -0.513014	            0.299958
            0.017500	            0.186413	            0.174993	            1.238428	           -0.138451	            0.006297	           -0.418650	           -0.109513	           -0.101006	           -0.123935	            0.563419	           -0.186637	            1.266163	           -0.232311	            0.006130	           -0.833667	           -0.317504	           -0.484115	            0.243468
            0.018000	            0.323534	            0.536140	            1.102064	           -0.138451	            0.006297	           -0.418650	            0.027117	           -0.081709	           -0.287523	            0.426110	           -1.107217	            1.075225	           -0.232311	            0.006130	           -0.833667	           -0.317811	           -0.399040	            0.243772
